<mxfile host="app.diagrams.net" modified="2020-11-19T09:35:14.300Z" agent="5.0 (Windows NT 10.0; Win64; x64) AppleWebKit/537.36 (KHTML, like Gecko) Chrome/86.0.4240.183 Safari/537.36" etag="NO19aVXgHz4Fg1ROVhdx" version="13.10.0" type="github">
  <diagram id="5XfeZyFRaNw-MFWTOzcX" name="Page-1">
    <mxGraphModel dx="2523" dy="934" grid="1" gridSize="10" guides="1" tooltips="1" connect="1" arrows="1" fold="1" page="1" pageScale="1" pageWidth="850" pageHeight="1100" math="0" shadow="0">
      <root>
        <mxCell id="0" />
        <mxCell id="1" parent="0" />
        <mxCell id="UKtSmBSIuzHprIceVxB9-1" value="&lt;font style=&quot;font-size: 20px ; background-color: rgb(255 , 255 , 255)&quot;&gt;Frontend&lt;/font&gt;" style="rounded=0;whiteSpace=wrap;html=1;fillColor=#cce5ff;strokeColor=#36393d;" vertex="1" parent="1">
          <mxGeometry x="170" y="370" width="950" height="60" as="geometry" />
        </mxCell>
        <mxCell id="UKtSmBSIuzHprIceVxB9-3" value="&lt;font style=&quot;font-size: 16px&quot;&gt;SignalR Channel&lt;/font&gt;" style="shape=parallelogram;perimeter=parallelogramPerimeter;whiteSpace=wrap;html=1;fixedSize=1;fillColor=#ffcccc;strokeColor=#36393d;" vertex="1" parent="1">
          <mxGeometry x="540" y="10" width="150" height="80" as="geometry" />
        </mxCell>
        <mxCell id="UKtSmBSIuzHprIceVxB9-4" value="&lt;font style=&quot;font-size: 15px&quot;&gt;Redux-Orm&lt;/font&gt;" style="shape=cylinder3;whiteSpace=wrap;html=1;boundedLbl=1;backgroundOutline=1;size=15;fillColor=#fff2cc;strokeColor=#d6b656;" vertex="1" parent="1">
          <mxGeometry x="750" y="140" width="80" height="110" as="geometry" />
        </mxCell>
        <mxCell id="UKtSmBSIuzHprIceVxB9-6" value="" style="endArrow=classic;startArrow=classic;html=1;exitX=0.25;exitY=1;exitDx=0;exitDy=0;exitPerimeter=0;" edge="1" parent="1" source="UKtSmBSIuzHprIceVxB9-4">
          <mxGeometry width="50" height="50" relative="1" as="geometry">
            <mxPoint x="380" y="280" as="sourcePoint" />
            <mxPoint x="645" y="369" as="targetPoint" />
          </mxGeometry>
        </mxCell>
        <mxCell id="UKtSmBSIuzHprIceVxB9-9" value="" style="endArrow=classic;html=1;exitX=0.713;exitY=0.975;exitDx=0;exitDy=0;exitPerimeter=0;" edge="1" parent="1" source="UKtSmBSIuzHprIceVxB9-10">
          <mxGeometry width="50" height="50" relative="1" as="geometry">
            <mxPoint x="510" y="390" as="sourcePoint" />
            <mxPoint x="590" y="369" as="targetPoint" />
          </mxGeometry>
        </mxCell>
        <mxCell id="UKtSmBSIuzHprIceVxB9-10" value="&lt;font style=&quot;font-size: 15px&quot;&gt;Redux&lt;/font&gt;" style="ellipse;whiteSpace=wrap;html=1;aspect=fixed;fillColor=#d5e8d4;strokeColor=#82b366;" vertex="1" parent="1">
          <mxGeometry x="410" y="150" width="80" height="80" as="geometry" />
        </mxCell>
        <mxCell id="UKtSmBSIuzHprIceVxB9-11" value="" style="endArrow=classic;html=1;" edge="1" parent="1" target="UKtSmBSIuzHprIceVxB9-10">
          <mxGeometry width="50" height="50" relative="1" as="geometry">
            <mxPoint x="590" y="90" as="sourcePoint" />
            <mxPoint x="385" y="240" as="targetPoint" />
          </mxGeometry>
        </mxCell>
        <mxCell id="UKtSmBSIuzHprIceVxB9-13" value="&lt;span style=&quot;font-size: 16px&quot;&gt;Changesets Events&lt;/span&gt;" style="text;html=1;align=center;verticalAlign=middle;resizable=0;points=[];autosize=1;" vertex="1" parent="1">
          <mxGeometry x="680" y="110" width="150" height="20" as="geometry" />
        </mxCell>
        <mxCell id="UKtSmBSIuzHprIceVxB9-14" value="&lt;font style=&quot;font-size: 16px&quot;&gt;JobEvent, AlertEvent&lt;/font&gt;" style="text;html=1;align=center;verticalAlign=middle;resizable=0;points=[];autosize=1;" vertex="1" parent="1">
          <mxGeometry x="370" y="110" width="160" height="20" as="geometry" />
        </mxCell>
        <mxCell id="UKtSmBSIuzHprIceVxB9-15" value="" style="endArrow=classic;html=1;entryX=0;entryY=0;entryDx=0;entryDy=35;entryPerimeter=0;" edge="1" parent="1" target="UKtSmBSIuzHprIceVxB9-4">
          <mxGeometry width="50" height="50" relative="1" as="geometry">
            <mxPoint x="630" y="90" as="sourcePoint" />
            <mxPoint x="430" y="220" as="targetPoint" />
          </mxGeometry>
        </mxCell>
        <mxCell id="UKtSmBSIuzHprIceVxB9-19" value="" style="endArrow=classic;html=1;dashed=1;dashPattern=1 2;exitX=1;exitY=0.5;exitDx=0;exitDy=0;" edge="1" parent="1" source="UKtSmBSIuzHprIceVxB9-24">
          <mxGeometry relative="1" as="geometry">
            <mxPoint x="1130" y="610" as="sourcePoint" />
            <mxPoint x="680" y="50" as="targetPoint" />
            <Array as="points">
              <mxPoint x="1210" y="610" />
              <mxPoint x="1210" y="340" />
              <mxPoint x="1210" y="50" />
            </Array>
          </mxGeometry>
        </mxCell>
        <mxCell id="UKtSmBSIuzHprIceVxB9-20" value="" style="shape=message;html=1;outlineConnect=0;fillColor=#ffff88;strokeColor=#36393d;" vertex="1" parent="UKtSmBSIuzHprIceVxB9-19">
          <mxGeometry width="40" height="30" relative="1" as="geometry">
            <mxPoint x="-19.999999999999993" y="210" as="offset" />
          </mxGeometry>
        </mxCell>
        <mxCell id="UKtSmBSIuzHprIceVxB9-24" value="&lt;font style=&quot;font-size: 20px&quot;&gt;Backend&lt;/font&gt;" style="rounded=0;whiteSpace=wrap;html=1;fillColor=#fff2cc;strokeColor=#d6b656;" vertex="1" parent="1">
          <mxGeometry x="170" y="580" width="950" height="60" as="geometry" />
        </mxCell>
        <mxCell id="UKtSmBSIuzHprIceVxB9-26" value="" style="endArrow=classic;html=1;" edge="1" parent="1">
          <mxGeometry width="50" height="50" relative="1" as="geometry">
            <mxPoint x="480" y="433" as="sourcePoint" />
            <mxPoint x="480" y="577" as="targetPoint" />
          </mxGeometry>
        </mxCell>
        <mxCell id="UKtSmBSIuzHprIceVxB9-27" value="" style="endArrow=classic;startArrow=classic;html=1;entryX=0.649;entryY=0.983;entryDx=0;entryDy=0;entryPerimeter=0;" edge="1" parent="1" target="UKtSmBSIuzHprIceVxB9-1">
          <mxGeometry width="50" height="50" relative="1" as="geometry">
            <mxPoint x="787" y="577" as="sourcePoint" />
            <mxPoint x="678" y="429" as="targetPoint" />
          </mxGeometry>
        </mxCell>
        <mxCell id="UKtSmBSIuzHprIceVxB9-28" value="&lt;font style=&quot;font-size: 17px&quot;&gt;CUD&lt;/font&gt;" style="text;html=1;align=center;verticalAlign=middle;resizable=0;points=[];autosize=1;" vertex="1" parent="1">
          <mxGeometry x="425" y="500" width="50" height="20" as="geometry" />
        </mxCell>
        <mxCell id="UKtSmBSIuzHprIceVxB9-29" value="&lt;font style=&quot;font-size: 18px&quot;&gt;R&lt;/font&gt;" style="text;html=1;align=center;verticalAlign=middle;resizable=0;points=[];autosize=1;" vertex="1" parent="1">
          <mxGeometry x="760" y="500" width="30" height="20" as="geometry" />
        </mxCell>
        <mxCell id="UKtSmBSIuzHprIceVxB9-30" value="" style="shape=flexArrow;endArrow=classic;html=1;" edge="1" parent="1">
          <mxGeometry width="50" height="50" relative="1" as="geometry">
            <mxPoint x="280" y="640" as="sourcePoint" />
            <mxPoint x="280" y="798" as="targetPoint" />
          </mxGeometry>
        </mxCell>
        <mxCell id="UKtSmBSIuzHprIceVxB9-32" value="" style="shape=flexArrow;endArrow=classic;startArrow=classic;html=1;exitX=0.876;exitY=1.05;exitDx=0;exitDy=0;exitPerimeter=0;entryX=0.47;entryY=0;entryDx=0;entryDy=0;entryPerimeter=0;" edge="1" parent="1" target="UKtSmBSIuzHprIceVxB9-33">
          <mxGeometry width="50" height="50" relative="1" as="geometry">
            <mxPoint x="1003.1999999999998" y="643" as="sourcePoint" />
            <mxPoint x="1006.7350993377486" y="800" as="targetPoint" />
          </mxGeometry>
        </mxCell>
        <mxCell id="UKtSmBSIuzHprIceVxB9-33" value="&lt;font style=&quot;font-size: 27px&quot;&gt;Query&lt;/font&gt;" style="rounded=1;whiteSpace=wrap;html=1;" vertex="1" parent="1">
          <mxGeometry x="894" y="800" width="230" height="290" as="geometry" />
        </mxCell>
        <mxCell id="UKtSmBSIuzHprIceVxB9-34" value="&lt;font style=&quot;font-size: 17px&quot;&gt;MongoDB&lt;/font&gt;" style="shape=cylinder3;whiteSpace=wrap;html=1;boundedLbl=1;backgroundOutline=1;size=15;fillColor=#60a917;strokeColor=#2D7600;fontColor=#ffffff;" vertex="1" parent="1">
          <mxGeometry x="930" y="1320" width="140" height="110" as="geometry" />
        </mxCell>
        <mxCell id="UKtSmBSIuzHprIceVxB9-35" value="" style="endArrow=classic;startArrow=none;html=1;entryX=0.459;entryY=1.004;entryDx=0;entryDy=0;exitX=0.5;exitY=0;exitDx=0;exitDy=0;exitPerimeter=0;entryPerimeter=0;startFill=0;" edge="1" parent="1" source="UKtSmBSIuzHprIceVxB9-34" target="UKtSmBSIuzHprIceVxB9-33">
          <mxGeometry width="50" height="50" relative="1" as="geometry">
            <mxPoint x="600" y="1190" as="sourcePoint" />
            <mxPoint x="650" y="1140" as="targetPoint" />
          </mxGeometry>
        </mxCell>
        <mxCell id="UKtSmBSIuzHprIceVxB9-37" value="" style="rounded=1;whiteSpace=wrap;html=1;" vertex="1" parent="1">
          <mxGeometry x="140" y="800" width="280" height="290" as="geometry" />
        </mxCell>
        <mxCell id="UKtSmBSIuzHprIceVxB9-38" value="&lt;font style=&quot;font-size: 15px&quot;&gt;Build&lt;/font&gt;" style="rounded=0;whiteSpace=wrap;html=1;" vertex="1" parent="1">
          <mxGeometry x="150" y="860" width="120" height="60" as="geometry" />
        </mxCell>
        <mxCell id="UKtSmBSIuzHprIceVxB9-39" value="&lt;font style=&quot;font-size: 15px&quot;&gt;Distribution&lt;/font&gt;" style="rounded=0;whiteSpace=wrap;html=1;" vertex="1" parent="1">
          <mxGeometry x="290" y="970" width="120" height="60" as="geometry" />
        </mxCell>
        <mxCell id="UKtSmBSIuzHprIceVxB9-41" value="" style="edgeStyle=elbowEdgeStyle;elbow=horizontal;endArrow=classic;html=1;exitX=0.5;exitY=1;exitDx=0;exitDy=0;entryX=0;entryY=0.5;entryDx=0;entryDy=0;" edge="1" parent="1" source="UKtSmBSIuzHprIceVxB9-38" target="UKtSmBSIuzHprIceVxB9-39">
          <mxGeometry width="50" height="50" relative="1" as="geometry">
            <mxPoint x="420" y="980" as="sourcePoint" />
            <mxPoint x="470" y="930" as="targetPoint" />
            <Array as="points">
              <mxPoint x="210" y="970" />
            </Array>
          </mxGeometry>
        </mxCell>
        <mxCell id="UKtSmBSIuzHprIceVxB9-42" value="" style="edgeStyle=segmentEdgeStyle;endArrow=classic;html=1;exitX=0.5;exitY=0;exitDx=0;exitDy=0;entryX=1;entryY=0.5;entryDx=0;entryDy=0;" edge="1" parent="1" source="UKtSmBSIuzHprIceVxB9-39" target="UKtSmBSIuzHprIceVxB9-38">
          <mxGeometry width="50" height="50" relative="1" as="geometry">
            <mxPoint x="420" y="980" as="sourcePoint" />
            <mxPoint x="470" y="930" as="targetPoint" />
            <Array as="points">
              <mxPoint x="350" y="890" />
            </Array>
          </mxGeometry>
        </mxCell>
        <mxCell id="UKtSmBSIuzHprIceVxB9-43" value="&lt;font style=&quot;font-size: 16px&quot;&gt;EventStore&lt;/font&gt;" style="shape=cylinder3;whiteSpace=wrap;html=1;boundedLbl=1;backgroundOutline=1;size=15;fillColor=#e1d5e7;strokeColor=#9673a6;" vertex="1" parent="1">
          <mxGeometry x="230" y="1300" width="100" height="150" as="geometry" />
        </mxCell>
        <mxCell id="UKtSmBSIuzHprIceVxB9-44" value="&lt;span&gt;&lt;font style=&quot;font-size: 26px&quot;&gt;DDD/ Commands&lt;/font&gt;&lt;/span&gt;" style="text;html=1;align=center;verticalAlign=middle;resizable=0;points=[];autosize=1;" vertex="1" parent="1">
          <mxGeometry x="170" y="820" width="220" height="20" as="geometry" />
        </mxCell>
        <mxCell id="UKtSmBSIuzHprIceVxB9-49" value="" style="shape=flexArrow;endArrow=classic;startArrow=classic;html=1;exitX=0.5;exitY=0;exitDx=0;exitDy=0;exitPerimeter=0;entryX=0.5;entryY=1;entryDx=0;entryDy=0;" edge="1" parent="1" source="UKtSmBSIuzHprIceVxB9-43" target="UKtSmBSIuzHprIceVxB9-37">
          <mxGeometry width="50" height="50" relative="1" as="geometry">
            <mxPoint x="280" y="1230" as="sourcePoint" />
            <mxPoint x="330" y="1180" as="targetPoint" />
          </mxGeometry>
        </mxCell>
        <mxCell id="UKtSmBSIuzHprIceVxB9-50" value="&lt;font style=&quot;font-size: 16px&quot;&gt;Events&lt;/font&gt;" style="text;html=1;align=center;verticalAlign=middle;resizable=0;points=[];autosize=1;" vertex="1" parent="1">
          <mxGeometry x="285" y="1190" width="60" height="20" as="geometry" />
        </mxCell>
        <mxCell id="UKtSmBSIuzHprIceVxB9-59" value="" style="endArrow=classic;html=1;exitX=1;exitY=0.5;exitDx=0;exitDy=0;exitPerimeter=0;entryX=0;entryY=0.5;entryDx=0;entryDy=0;entryPerimeter=0;" edge="1" parent="1" source="UKtSmBSIuzHprIceVxB9-43" target="UKtSmBSIuzHprIceVxB9-34">
          <mxGeometry width="50" height="50" relative="1" as="geometry">
            <mxPoint x="470" y="1320" as="sourcePoint" />
            <mxPoint x="520" y="1270" as="targetPoint" />
          </mxGeometry>
        </mxCell>
        <mxCell id="UKtSmBSIuzHprIceVxB9-63" value="&lt;font style=&quot;font-size: 17px&quot;&gt;Projections&lt;/font&gt;" style="shape=hexagon;perimeter=hexagonPerimeter2;whiteSpace=wrap;html=1;fixedSize=1;fillColor=#b0e3e6;strokeColor=#0e8088;" vertex="1" parent="1">
          <mxGeometry x="680" y="1610" width="190" height="110" as="geometry" />
        </mxCell>
        <mxCell id="UKtSmBSIuzHprIceVxB9-67" value="" style="endArrow=classic;html=1;entryX=0.5;entryY=1;entryDx=0;entryDy=0;entryPerimeter=0;" edge="1" parent="1" target="UKtSmBSIuzHprIceVxB9-34">
          <mxGeometry width="50" height="50" relative="1" as="geometry">
            <mxPoint x="850" y="1611" as="sourcePoint" />
            <mxPoint x="1180" y="1490" as="targetPoint" />
            <Array as="points" />
          </mxGeometry>
        </mxCell>
        <mxCell id="UKtSmBSIuzHprIceVxB9-68" value="&lt;font style=&quot;font-size: 17px&quot;&gt;EventHandlers&lt;/font&gt;" style="shape=hexagon;perimeter=hexagonPerimeter2;whiteSpace=wrap;html=1;fixedSize=1;fillColor=#fff2cc;strokeColor=#d6b656;" vertex="1" parent="1">
          <mxGeometry x="-160" y="1610" width="190" height="110" as="geometry" />
        </mxCell>
        <mxCell id="UKtSmBSIuzHprIceVxB9-69" value="" style="endArrow=none;dashed=1;html=1;startArrow=blockThin;startFill=1;entryX=0.5;entryY=1;entryDx=0;entryDy=0;entryPerimeter=0;exitX=1;exitY=0.5;exitDx=0;exitDy=0;" edge="1" parent="1" source="UKtSmBSIuzHprIceVxB9-68" target="UKtSmBSIuzHprIceVxB9-43">
          <mxGeometry width="50" height="50" relative="1" as="geometry">
            <mxPoint x="280" y="1670" as="sourcePoint" />
            <mxPoint x="325.5" y="1455.65" as="targetPoint" />
            <Array as="points">
              <mxPoint x="280" y="1665" />
            </Array>
          </mxGeometry>
        </mxCell>
        <mxCell id="UKtSmBSIuzHprIceVxB9-76" value="&lt;font style=&quot;font-size: 21px&quot;&gt;BuildSync&lt;/font&gt;" style="shape=trapezoid;perimeter=trapezoidPerimeter;whiteSpace=wrap;html=1;fixedSize=1;fillColor=#cce5ff;strokeColor=#36393d;" vertex="1" parent="1">
          <mxGeometry x="-780" y="1600" width="210" height="130" as="geometry" />
        </mxCell>
        <mxCell id="UKtSmBSIuzHprIceVxB9-78" value="" style="endArrow=classic;html=1;exitX=0;exitY=0.5;exitDx=0;exitDy=0;startArrow=classic;startFill=1;" edge="1" parent="1" source="UKtSmBSIuzHprIceVxB9-68" target="UKtSmBSIuzHprIceVxB9-76">
          <mxGeometry width="50" height="50" relative="1" as="geometry">
            <mxPoint x="-220" y="1660" as="sourcePoint" />
            <mxPoint x="-170" y="1610" as="targetPoint" />
            <Array as="points">
              <mxPoint x="-520" y="1665" />
            </Array>
          </mxGeometry>
        </mxCell>
        <mxCell id="UKtSmBSIuzHprIceVxB9-79" value="" style="endArrow=classic;html=1;entryX=0;entryY=0.75;entryDx=0;entryDy=0;" edge="1" parent="1" target="UKtSmBSIuzHprIceVxB9-37">
          <mxGeometry width="50" height="50" relative="1" as="geometry">
            <mxPoint x="-80" y="1608" as="sourcePoint" />
            <mxPoint x="-80" y="960" as="targetPoint" />
            <Array as="points">
              <mxPoint x="-80" y="1018" />
            </Array>
          </mxGeometry>
        </mxCell>
        <mxCell id="UKtSmBSIuzHprIceVxB9-83" value="&lt;font style=&quot;font-size: 15px&quot;&gt;PDC&lt;/font&gt;" style="shape=dataStorage;whiteSpace=wrap;html=1;fixedSize=1;direction=north;fillColor=#ffcc99;strokeColor=#36393d;" vertex="1" parent="1">
          <mxGeometry x="-650" y="1228" width="90" height="100" as="geometry" />
        </mxCell>
        <mxCell id="UKtSmBSIuzHprIceVxB9-84" value="&lt;font style=&quot;font-size: 16px&quot;&gt;Artifactory&lt;/font&gt;" style="shape=dataStorage;whiteSpace=wrap;html=1;fixedSize=1;direction=north;size=10;fillColor=#cdeb8b;strokeColor=#36393d;" vertex="1" parent="1">
          <mxGeometry x="-820" y="1230" width="80" height="100" as="geometry" />
        </mxCell>
        <mxCell id="UKtSmBSIuzHprIceVxB9-85" value="" style="endArrow=classic;startArrow=classic;html=1;exitX=0;exitY=0.5;exitDx=0;exitDy=0;entryX=0.5;entryY=0;entryDx=0;entryDy=0;" edge="1" parent="1" source="UKtSmBSIuzHprIceVxB9-83" target="UKtSmBSIuzHprIceVxB9-76">
          <mxGeometry width="50" height="50" relative="1" as="geometry">
            <mxPoint x="-760" y="1340" as="sourcePoint" />
            <mxPoint x="-710" y="1290" as="targetPoint" />
          </mxGeometry>
        </mxCell>
        <mxCell id="UKtSmBSIuzHprIceVxB9-86" value="" style="endArrow=classic;startArrow=classic;html=1;exitX=0;exitY=0.5;exitDx=0;exitDy=0;entryX=0.438;entryY=0.008;entryDx=0;entryDy=0;entryPerimeter=0;" edge="1" parent="1" source="UKtSmBSIuzHprIceVxB9-84" target="UKtSmBSIuzHprIceVxB9-76">
          <mxGeometry width="50" height="50" relative="1" as="geometry">
            <mxPoint x="-860" y="1300" as="sourcePoint" />
            <mxPoint x="-597.7883597883597" y="1340.6243386243386" as="targetPoint" />
          </mxGeometry>
        </mxCell>
        <mxCell id="UKtSmBSIuzHprIceVxB9-88" value="&lt;font style=&quot;font-size: 16px&quot;&gt;SendCommands&lt;/font&gt;" style="text;html=1;align=center;verticalAlign=middle;resizable=0;points=[];autosize=1;strokeWidth=2;" vertex="1" parent="1">
          <mxGeometry x="-210" y="1250" width="130" height="20" as="geometry" />
        </mxCell>
        <mxCell id="UKtSmBSIuzHprIceVxB9-89" value="" style="endArrow=none;dashed=1;html=1;exitX=0.5;exitY=1;exitDx=0;exitDy=0;entryX=1;entryY=0.5;entryDx=0;entryDy=0;entryPerimeter=0;startArrow=none;startFill=0;" edge="1" parent="1" source="UKtSmBSIuzHprIceVxB9-68" target="UKtSmBSIuzHprIceVxB9-34">
          <mxGeometry width="50" height="50" relative="1" as="geometry">
            <mxPoint x="170" y="1760" as="sourcePoint" />
            <mxPoint x="1120" y="1380" as="targetPoint" />
            <Array as="points">
              <mxPoint x="-65" y="1800" />
              <mxPoint x="910" y="1800" />
              <mxPoint x="1120" y="1800" />
              <mxPoint x="1120" y="1375" />
            </Array>
          </mxGeometry>
        </mxCell>
        <mxCell id="UKtSmBSIuzHprIceVxB9-90" value="Validation by ReadModel" style="edgeLabel;html=1;align=center;verticalAlign=middle;resizable=0;points=[];fontSize=17;" vertex="1" connectable="0" parent="UKtSmBSIuzHprIceVxB9-89">
          <mxGeometry x="-0.2116" y="-3" relative="1" as="geometry">
            <mxPoint x="-121" y="17" as="offset" />
          </mxGeometry>
        </mxCell>
        <mxCell id="UKtSmBSIuzHprIceVxB9-92" value="Events" style="text;html=1;align=center;verticalAlign=middle;resizable=0;points=[];autosize=1;fontSize=17;" vertex="1" parent="1">
          <mxGeometry x="275" y="1525" width="70" height="30" as="geometry" />
        </mxCell>
        <mxCell id="UKtSmBSIuzHprIceVxB9-93" value="StorageEvents" style="text;html=1;align=center;verticalAlign=middle;resizable=0;points=[];autosize=1;fontSize=17;" vertex="1" parent="1">
          <mxGeometry x="-425" y="1632" width="130" height="30" as="geometry" />
        </mxCell>
        <mxCell id="UKtSmBSIuzHprIceVxB9-94" value="BuildParse" style="text;html=1;align=center;verticalAlign=middle;resizable=0;points=[];autosize=1;fontSize=17;" vertex="1" parent="1">
          <mxGeometry x="-410" y="1670" width="100" height="30" as="geometry" />
        </mxCell>
        <mxCell id="UKtSmBSIuzHprIceVxB9-100" value="" style="endArrow=none;dashed=1;html=1;startArrow=blockThin;startFill=1;exitX=0;exitY=0.5;exitDx=0;exitDy=0;" edge="1" parent="1" source="UKtSmBSIuzHprIceVxB9-63">
          <mxGeometry width="50" height="50" relative="1" as="geometry">
            <mxPoint x="40" y="1675" as="sourcePoint" />
            <mxPoint x="280" y="1665" as="targetPoint" />
            <Array as="points" />
          </mxGeometry>
        </mxCell>
        <mxCell id="UKtSmBSIuzHprIceVxB9-101" value="" style="endArrow=open;dashed=1;html=1;fontSize=17;exitX=1;exitY=0.5;exitDx=0;exitDy=0;entryX=1;entryY=0.75;entryDx=0;entryDy=0;endFill=0;" edge="1" parent="1" source="UKtSmBSIuzHprIceVxB9-63" target="UKtSmBSIuzHprIceVxB9-24">
          <mxGeometry width="50" height="50" relative="1" as="geometry">
            <mxPoint x="1170" y="1700" as="sourcePoint" />
            <mxPoint x="1280" y="620" as="targetPoint" />
            <Array as="points">
              <mxPoint x="1280" y="1665" />
              <mxPoint x="1280" y="625" />
            </Array>
          </mxGeometry>
        </mxCell>
        <mxCell id="UKtSmBSIuzHprIceVxB9-102" value="Changeset Events" style="text;html=1;align=center;verticalAlign=middle;resizable=0;points=[];autosize=1;fontSize=17;" vertex="1" parent="1">
          <mxGeometry x="1290" y="1150" width="150" height="30" as="geometry" />
        </mxCell>
        <mxCell id="UKtSmBSIuzHprIceVxB9-103" value="&lt;font style=&quot;font-size: 17px&quot;&gt;CUD&lt;/font&gt;" style="text;html=1;align=center;verticalAlign=middle;resizable=0;points=[];autosize=1;" vertex="1" parent="1">
          <mxGeometry x="285" y="700" width="50" height="20" as="geometry" />
        </mxCell>
        <mxCell id="UKtSmBSIuzHprIceVxB9-104" value="&lt;font style=&quot;font-size: 18px&quot;&gt;R&lt;/font&gt;" style="text;html=1;align=center;verticalAlign=middle;resizable=0;points=[];autosize=1;" vertex="1" parent="1">
          <mxGeometry x="970" y="720" width="30" height="20" as="geometry" />
        </mxCell>
        <mxCell id="UKtSmBSIuzHprIceVxB9-105" value="ReadModels" style="text;html=1;align=center;verticalAlign=middle;resizable=0;points=[];autosize=1;fontSize=17;" vertex="1" parent="1">
          <mxGeometry x="954" y="985" width="110" height="30" as="geometry" />
        </mxCell>
        <mxCell id="UKtSmBSIuzHprIceVxB9-107" value="StaticStorage" style="shape=step;perimeter=stepPerimeter;whiteSpace=wrap;html=1;fixedSize=1;strokeWidth=2;fontSize=17;direction=south;fillColor=#ffff88;strokeColor=#36393d;" vertex="1" parent="1">
          <mxGeometry x="-780" y="750" width="180" height="220" as="geometry" />
        </mxCell>
        <mxCell id="UKtSmBSIuzHprIceVxB9-109" value="" style="endArrow=classic;html=1;fontSize=17;exitX=0;exitY=0.5;exitDx=0;exitDy=0;entryX=0.5;entryY=0;entryDx=0;entryDy=0;" edge="1" parent="1" source="UKtSmBSIuzHprIceVxB9-24" target="UKtSmBSIuzHprIceVxB9-107">
          <mxGeometry width="50" height="50" relative="1" as="geometry">
            <mxPoint x="-100" y="760" as="sourcePoint" />
            <mxPoint x="-50" y="710" as="targetPoint" />
          </mxGeometry>
        </mxCell>
        <mxCell id="UKtSmBSIuzHprIceVxB9-110" value="" style="endArrow=classic;html=1;fontSize=17;exitX=1;exitY=0.5;exitDx=0;exitDy=0;entryX=0.9;entryY=0.5;entryDx=0;entryDy=0;entryPerimeter=0;" edge="1" parent="1" source="UKtSmBSIuzHprIceVxB9-107" target="UKtSmBSIuzHprIceVxB9-84">
          <mxGeometry width="50" height="50" relative="1" as="geometry">
            <mxPoint x="-730" y="1120" as="sourcePoint" />
            <mxPoint x="-680" y="1070" as="targetPoint" />
          </mxGeometry>
        </mxCell>
        <mxCell id="UKtSmBSIuzHprIceVxB9-111" value="" style="endArrow=classic;html=1;fontSize=17;entryX=0.84;entryY=0.575;entryDx=0;entryDy=0;entryPerimeter=0;" edge="1" parent="1" target="UKtSmBSIuzHprIceVxB9-83">
          <mxGeometry width="50" height="50" relative="1" as="geometry">
            <mxPoint x="-690" y="970" as="sourcePoint" />
            <mxPoint x="-770" y="1240" as="targetPoint" />
          </mxGeometry>
        </mxCell>
        <mxCell id="UKtSmBSIuzHprIceVxB9-112" value="File" style="text;html=1;align=center;verticalAlign=middle;resizable=0;points=[];autosize=1;fontSize=17;" vertex="1" parent="1">
          <mxGeometry x="-300" y="720" width="40" height="30" as="geometry" />
        </mxCell>
        <mxCell id="UKtSmBSIuzHprIceVxB9-113" value="Events" style="text;html=1;align=center;verticalAlign=middle;resizable=0;points=[];autosize=1;fontSize=17;" vertex="1" parent="1">
          <mxGeometry x="585" y="1345" width="70" height="30" as="geometry" />
        </mxCell>
        <mxCell id="UKtSmBSIuzHprIceVxB9-118" value="" style="shape=curlyBracket;whiteSpace=wrap;html=1;rounded=1;strokeWidth=2;fontSize=17;" vertex="1" parent="1">
          <mxGeometry x="1230" y="281" width="20" height="106" as="geometry" />
        </mxCell>
        <mxCell id="UKtSmBSIuzHprIceVxB9-119" value="type" style="text;html=1;align=center;verticalAlign=middle;resizable=0;points=[];autosize=1;fontSize=17;" vertex="1" parent="1">
          <mxGeometry x="1250" y="290" width="50" height="30" as="geometry" />
        </mxCell>
        <mxCell id="UKtSmBSIuzHprIceVxB9-120" value="payload" style="text;html=1;align=center;verticalAlign=middle;resizable=0;points=[];autosize=1;fontSize=17;" vertex="1" parent="1">
          <mxGeometry x="1250" y="340" width="80" height="30" as="geometry" />
        </mxCell>
        <mxCell id="UKtSmBSIuzHprIceVxB9-121" value="ReadModel" style="text;html=1;align=center;verticalAlign=middle;resizable=0;points=[];autosize=1;fontSize=17;" vertex="1" parent="1">
          <mxGeometry x="900" y="1540" width="100" height="30" as="geometry" />
        </mxCell>
      </root>
    </mxGraphModel>
  </diagram>
</mxfile>
